<svg width="350" height="350" viewBox="0 0 350 350" fill="none" xmlns="http://www.w3.org/2000/svg">
<path d="M53.3699 275.931C45.2163 274.618 37.377 273.208 29.7706 271.657C32.1512 275.372 34.6686 278.934 37.281 282.382C41.8783 288.471 46.817 294.294 52.1806 299.756C65.1497 312.995 80.2122 324.125 96.7397 332.643C107.37 338.075 118.629 342.475 130.368 345.618C126.003 341.833 121.858 337.685 117.836 333.188C109.422 323.65 101.719 312.548 95.1119 299.979C93.3191 296.557 91.6089 292.982 89.9529 289.324C88.6122 286.404 87.3269 283.444 86.1502 280.414C74.9321 279.142 63.9865 277.663 53.3699 275.931ZM67.8999 184.333H1.83398C2.40825 195.575 4.04962 206.565 6.56701 217.152C9.35795 228.77 13.2839 239.956 18.2372 250.612C28.3203 252.958 38.9505 255.109 50.0318 257.008C59.5814 258.656 69.4452 260.123 79.5691 261.38C76.232 250.319 73.5225 238.491 71.6212 225.979C69.5413 212.892 68.2831 198.955 67.8999 184.333ZM50.0318 93.4292C38.9505 95.3348 28.3203 97.4992 18.2372 99.8454C13.2839 110.481 9.31723 121.674 6.56701 133.272C4.04962 143.906 2.40825 154.893 1.83398 166.149H67.8999C68.2831 151.468 69.5413 137.545 71.6212 124.431C73.5225 111.932 76.232 100.125 79.5283 89.0512C69.4452 90.3303 59.5814 91.8035 50.0318 93.4292ZM130.368 4.85509C118.629 7.96867 107.37 12.354 96.7397 17.8148C80.2122 26.291 65.1497 37.4422 52.1806 50.7026C46.817 56.1488 41.824 61.9583 37.281 68.033C34.6686 71.4963 32.1512 75.086 29.7706 78.7937C37.377 77.2505 45.257 75.8117 53.3699 74.5128C64.0826 72.7879 74.9728 71.2875 86.1502 70.0586C87.3269 67.0275 88.5851 64.0528 89.9529 61.148C91.6089 57.4341 93.3191 53.8726 95.1119 50.4645C101.719 37.8818 109.422 26.7734 117.836 17.2415C121.858 12.7455 126.058 8.59723 130.368 4.85509ZM134.021 66.2173C144.24 65.715 154.652 65.3799 165.282 65.2681V3.173C155.459 7.78803 146.141 14.2825 137.577 22.5916C127.494 32.3396 118.397 44.5517 110.776 59.0754C109.545 61.4769 108.218 64.0121 107 66.638L106.371 68.0486C115.414 67.301 124.649 66.6506 134.021 66.2173ZM85.6991 166.149H165.282V83.4098C154.2 83.5351 143.2 83.8849 132.392 84.4435C121.009 85.0157 109.846 85.8677 98.8875 86.9149C94.9333 98.5757 91.7592 111.327 89.53 125.04C87.3541 137.93 86.0541 151.643 85.6991 166.149ZM132.392 266.015C143.2 266.559 154.2 266.937 165.282 267.048V184.332H85.6991C86.0541 198.787 87.3541 212.513 89.53 225.403C91.7592 239.131 94.9333 251.868 98.8875 263.515C109.846 264.577 121.009 265.444 132.392 266.015ZM165.282 347.292V285.176C154.652 285.064 144.24 284.743 134.021 284.226C124.649 283.765 115.414 283.151 106.371 282.382L107 283.764C108.136 286.265 109.422 288.806 110.776 291.389C118.397 305.887 127.494 318.105 137.577 327.853C146.141 336.163 155.459 342.669 165.282 347.292Z" fill="white"/>
<path d="M187.13 96.3672C186.459 96.3672 185.803 96.458 185.231 96.5604V122.008C185.804 121.909 186.461 121.867 187.13 121.867C211.451 121.867 231.426 141.979 231.705 166.758H256.611C256.221 127.902 225.191 96.3672 187.13 96.3672ZM187.13 49.8974C186.459 49.8974 185.803 49.9924 185.231 49.9924V75.4252C185.804 75.4252 186.461 75.3761 187.13 75.3761C236.541 75.3761 276.866 116.297 277.244 166.759H302.138C301.662 102.269 250.266 49.8974 187.13 49.8974ZM347.857 166.758C347.564 76.3879 275.635 3.17178 187.129 3.17178H185.229V28.5973H187.129C261.908 28.5973 322.682 90.5681 322.963 166.758H347.857Z" fill="white"/>
<path d="M197.762 166.758C204.684 166.758 210.295 161.147 210.295 154.224C210.295 147.303 204.684 141.692 197.762 141.692C190.841 141.692 185.229 147.303 185.229 154.224C185.229 161.147 190.841 166.758 197.762 166.758Z" fill="white"/>
<path d="M211.237 223.883C211.74 222.015 211.991 218.85 211.991 214.386C211.991 209.921 211.766 206.855 211.317 205.186C210.867 203.515 210.3 202.401 209.617 201.838C208.933 201.277 208.151 200.994 207.269 200.994C206.386 200.994 205.598 201.277 204.907 201.838C204.215 202.401 203.677 203.409 203.298 204.861C202.796 206.749 202.544 209.922 202.544 214.386C202.544 218.849 202.769 221.916 203.218 223.586C203.668 225.256 204.235 226.366 204.918 226.919C205.602 227.474 206.385 227.75 207.268 227.75C208.15 227.75 208.937 227.47 209.628 226.907C210.322 226.345 210.857 225.336 211.237 223.883ZM211.237 273.413C211.74 271.544 211.991 268.378 211.991 263.915C211.991 259.451 211.766 256.385 211.317 254.714C210.867 253.045 210.3 251.929 209.617 251.366C208.933 250.805 208.151 250.523 207.269 250.523C206.386 250.523 205.598 250.805 204.907 251.366C204.215 251.929 203.677 252.937 203.298 254.39C202.796 256.276 202.544 259.45 202.544 263.914C202.544 268.376 202.769 271.444 203.218 273.113C203.667 274.783 204.235 275.894 204.918 276.448C205.602 277.001 206.385 277.278 207.268 277.278C208.15 277.278 208.937 276.997 209.628 276.434C210.322 275.874 210.857 274.866 211.237 273.413ZM240.796 273.413C241.298 271.544 241.549 268.378 241.549 263.915C241.549 259.451 241.324 256.385 240.875 254.714C240.425 253.045 239.858 251.929 239.175 251.366C238.492 250.805 237.71 250.523 236.826 250.523C235.943 250.523 235.156 250.805 234.465 251.366C233.773 251.929 233.236 252.937 232.856 254.39C232.355 256.276 232.103 259.45 232.103 263.914C232.103 268.376 232.328 271.444 232.778 273.113C233.229 274.783 233.795 275.894 234.477 276.448C235.161 277.001 235.943 277.278 236.826 277.278C237.71 277.278 238.496 276.997 239.189 276.434C239.88 275.874 240.415 274.866 240.796 273.413ZM240.796 322.942C241.298 321.073 241.549 317.908 241.549 313.444C241.549 308.979 241.324 305.915 240.875 304.245C240.425 302.574 239.858 301.459 239.175 300.897C238.492 300.335 237.71 300.053 236.826 300.053C235.943 300.053 235.156 300.335 234.465 300.897C233.773 301.459 233.236 302.467 232.856 303.92C232.355 305.806 232.103 308.98 232.103 313.444C232.103 317.907 232.328 320.974 232.778 322.644C233.229 324.314 233.795 325.425 234.477 325.979C235.161 326.532 235.943 326.809 236.826 326.809C237.71 326.809 238.496 326.528 239.189 325.965C239.88 325.403 240.415 324.397 240.796 322.942ZM270.355 223.883C270.856 222.015 271.107 218.85 271.107 214.386C271.107 209.921 270.882 206.855 270.433 205.186C269.981 203.515 269.415 202.401 268.733 201.838C268.049 201.277 267.266 200.994 266.384 200.994C265.502 200.994 264.713 201.277 264.023 201.838C263.331 202.401 262.793 203.409 262.414 204.861C261.912 206.749 261.66 209.922 261.66 214.386C261.66 218.849 261.885 221.916 262.335 223.586C262.785 225.256 263.351 226.366 264.035 226.919C264.717 227.474 265.5 227.75 266.383 227.75C267.265 227.75 268.052 227.47 268.745 226.907C269.437 226.345 269.972 225.336 270.355 223.883ZM299.912 273.413C300.413 271.544 300.665 268.378 300.665 263.915C300.665 259.451 300.44 256.385 299.99 254.714C299.54 253.045 298.974 251.929 298.29 251.366C297.607 250.805 296.824 250.523 295.942 250.523C295.06 250.523 294.272 250.805 293.58 251.366C292.888 251.929 292.352 252.937 291.971 254.39C291.47 256.276 291.219 259.45 291.219 263.914C291.219 268.376 291.444 271.444 291.894 273.113C292.343 274.783 292.911 275.894 293.594 276.448C294.277 277.001 295.06 277.278 295.942 277.278C296.824 277.278 297.613 276.997 298.304 276.434C298.994 275.874 299.532 274.866 299.912 273.413ZM329.471 223.883C329.971 222.015 330.223 218.85 330.223 214.386C330.223 209.921 329.998 206.855 329.548 205.186C329.097 203.515 328.531 202.401 327.848 201.838C327.164 201.277 326.382 200.994 325.5 200.994C324.617 200.994 323.829 201.277 323.137 201.838C322.445 202.401 321.908 203.409 321.528 204.861C321.027 206.749 320.775 209.922 320.775 214.386C320.775 218.849 321.001 221.916 321.451 223.586C321.9 225.256 322.467 226.366 323.151 226.919C323.833 227.474 324.616 227.75 325.499 227.75C326.381 227.75 327.169 227.47 327.861 226.907C328.553 226.345 329.09 225.336 329.471 223.883ZM337.852 214.386C337.852 221.584 336.606 226.755 334.115 229.904C332.055 232.498 329.184 233.797 325.5 233.797C321.797 233.797 318.813 232.375 316.547 229.528C314.28 226.682 313.147 221.609 313.147 214.307C313.147 207.147 314.392 201.99 316.884 198.841C318.943 196.246 321.815 194.947 325.5 194.947C329.184 194.947 332.064 196.264 334.14 198.892C336.616 202.008 337.852 207.171 337.852 214.386ZM308.295 263.916C308.295 271.113 307.049 276.286 304.558 279.434C302.499 282.028 299.627 283.327 295.942 283.327C292.239 283.327 289.256 281.904 286.989 279.058C284.723 276.211 283.589 271.139 283.589 263.837C283.589 256.676 284.836 251.52 287.327 248.371C289.385 245.777 292.258 244.478 295.942 244.478C299.627 244.478 302.507 245.794 304.583 248.422C307.058 251.537 308.295 256.702 308.295 263.916ZM302.273 233.148H294.981V205.667C292.318 208.158 289.177 209.999 285.562 211.195V204.577C287.465 203.953 289.533 202.773 291.764 201.033C293.996 199.295 295.527 197.268 296.358 194.948H302.273V233.148ZM278.737 214.386C278.737 221.584 277.491 226.755 275 229.904C272.941 232.498 270.07 233.797 266.384 233.797C262.681 233.797 259.697 232.375 257.431 229.528C255.165 226.682 254.032 221.609 254.032 214.307C254.032 207.147 255.276 201.99 257.769 198.841C259.827 196.246 262.699 194.947 266.384 194.947C270.07 194.947 272.949 196.264 275.025 198.892C277.499 202.008 278.737 207.171 278.737 214.386ZM249.178 313.444C249.178 320.641 247.933 325.815 245.441 328.963C243.382 331.556 240.51 332.855 236.825 332.855C233.122 332.855 230.139 331.432 227.873 328.587C225.606 325.74 224.473 320.667 224.473 313.367C224.473 306.205 225.718 301.049 228.21 297.9C230.27 295.304 233.141 294.006 236.825 294.006C240.51 294.006 243.391 295.321 245.467 297.95C247.941 301.067 249.178 306.23 249.178 313.444ZM249.178 263.916C249.178 271.113 247.933 276.286 245.441 279.434C243.382 282.028 240.51 283.327 236.825 283.327C233.122 283.327 230.139 281.904 227.873 279.058C225.606 276.211 224.473 271.139 224.473 263.837C224.473 256.676 225.718 251.52 228.21 248.371C230.27 245.777 233.141 244.478 236.825 244.478C240.51 244.478 243.391 245.794 245.467 248.422C247.941 251.537 249.178 256.702 249.178 263.916ZM243.158 233.148H235.866V205.667C233.202 208.158 230.062 209.999 226.447 211.195V204.577C228.348 203.953 230.418 202.773 232.648 201.033C234.88 199.295 236.411 197.268 237.241 194.948H243.158V233.148ZM219.621 263.916C219.621 271.113 218.375 276.286 215.884 279.434C213.825 282.028 210.953 283.327 207.269 283.327C203.566 283.327 200.581 281.904 198.315 279.058C196.048 276.211 194.916 271.139 194.916 263.837C194.916 256.676 196.161 251.52 198.652 248.371C200.711 245.777 203.583 244.478 207.269 244.478C210.953 244.478 213.834 245.794 215.91 248.422C218.382 251.537 219.621 256.702 219.621 263.916ZM219.621 214.386C219.621 221.584 218.375 226.755 215.884 229.904C213.825 232.498 210.953 233.797 207.269 233.797C203.566 233.797 200.581 232.375 198.315 229.528C196.048 226.682 194.916 221.609 194.916 214.307C194.916 207.147 196.161 201.99 198.652 198.841C200.711 196.246 203.583 194.947 207.269 194.947C210.953 194.947 213.834 196.264 215.91 198.892C218.382 202.008 219.621 207.171 219.621 214.386ZM196.887 303.635C198.79 303.012 200.859 301.831 203.089 300.093C205.321 298.354 206.852 296.326 207.682 294.007H213.598V332.207H206.307V304.725C203.642 307.217 200.502 309.058 196.887 310.253V303.635ZM256.004 254.105C257.907 253.483 259.974 252.302 262.206 250.564C264.438 248.824 265.969 246.796 266.798 244.477H272.715V282.678H265.424V255.195C262.759 257.687 259.619 259.529 256.004 260.723V254.105ZM348.303 186.75H341.326H288.017H187.301V187.23V211.812V261.991V280.277V286.588V341.471V348.645C188.114 348.659 188.913 348.7 189.725 348.7C232.093 348.7 271.926 331.746 301.873 300.922C331.549 270.401 347.992 229.893 348.303 186.75Z" fill="white"/>
</svg>
