<svg width="392" height="91" viewBox="0 0 392 91" fill="none" xmlns="http://www.w3.org/2000/svg">
<path d="M84.4299 3.12891V86.177H4.04785L5.68632 87.8727H86.0713V4.82606L84.4299 3.12891Z" fill="#1D1D1B"/>
<path d="M110.582 63.2646C110.582 66.2661 108.587 67.7646 104.598 67.7646C104.171 67.7646 103.772 67.7358 103.344 67.7115V65.1195C103.344 63.0326 103.403 61.0564 103.487 59.203C104.084 59.1423 104.654 59.1181 105.225 59.1181C108.901 59.1181 110.582 60.1706 110.582 63.2646ZM113.203 63.0326C113.203 59.8521 111.008 57.9669 106.965 57.9669C105.254 57.9669 103.717 58.1717 102.32 58.1717C101.922 58.1717 101.494 58.1429 100.951 58.0837C101.067 61.1474 101.126 64.4143 101.126 67.939C101.126 71.2984 101.067 74.5653 100.951 77.7488C101.437 77.6563 101.892 77.5926 102.347 77.5926C102.747 77.5926 103.118 77.6563 103.516 77.717C103.404 75.6573 103.374 74.0345 103.374 72.856V68.7337C104.259 68.7929 104.997 68.7929 105.485 68.7929C110.525 68.7929 113.203 66.6802 113.203 63.0326Z" fill="#1D1D1B"/>
<path d="M124.313 71.124C124.313 75.0659 122.832 77.1285 120.098 77.1285C117.333 77.1285 115.852 75.0097 115.852 70.9132C115.852 66.8501 117.333 64.7631 120.069 64.7631C122.832 64.7631 124.313 66.9426 124.313 71.124ZM126.706 70.9451C126.706 66.7651 123.972 63.9108 120.098 63.9108C116.338 63.9108 113.488 66.7651 113.488 70.9451C113.488 75.1523 116.251 78.0082 120.098 78.0082C123.886 78.0097 126.706 75.2433 126.706 70.9451Z" fill="#1D1D1B"/>
<path d="M132.061 77.7488C131.978 75.2493 131.947 71.0087 131.947 65.0452C131.947 61.7828 131.947 58.836 132.061 56.1954C131.694 56.2258 131.263 56.2561 130.865 56.2561C130.524 56.2561 130.125 56.2243 129.755 56.1954C129.869 57.7849 129.869 59.6322 129.869 61.8132V69.3647C129.869 73.0441 129.869 75.8348 129.755 77.7488C130.125 77.6805 130.495 77.6532 130.865 77.6532C131.263 77.6517 131.665 77.6805 132.061 77.7488Z" fill="#1D1D1B"/>
<path d="M138.729 77.7488C138.644 75.3904 138.584 73.0016 138.584 70.6144C138.584 68.4091 138.644 66.2858 138.729 64.1655C138.387 64.2565 137.989 64.2838 137.587 64.2838C137.218 64.2838 136.848 64.255 136.449 64.1655C136.537 66.2524 136.593 68.4091 136.593 70.6144C136.593 73.0016 136.537 75.3904 136.449 77.7488C136.848 77.6532 137.218 77.5971 137.587 77.5971C137.989 77.5971 138.387 77.6517 138.729 77.7488ZM139.015 59.1742C139.015 58.3491 138.387 57.7318 137.587 57.7318C136.82 57.7318 136.164 58.3491 136.164 59.1742C136.164 59.9674 136.82 60.6165 137.587 60.6165C138.387 60.6165 139.015 59.9674 139.015 59.1742Z" fill="#1D1D1B"/>
<path d="M149.555 77.0663L149.355 76.4172C148.56 76.8297 147.903 77.036 147.419 77.036C145.654 77.036 145.086 75.9167 145.086 73.3808C145.086 70.7631 145.198 68.5518 145.198 66.7227C145.198 66.5771 145.225 66.0781 145.255 65.2849C145.54 65.253 145.88 65.253 146.252 65.253C146.962 65.253 147.817 65.2849 148.815 65.3395V65.1074C148.815 64.7555 148.845 64.434 148.902 64.1656C147.507 64.2823 146.31 64.3157 145.284 64.3157V62.435C145.284 62.1423 145.314 61.4052 145.368 60.1707C144.713 60.4983 143.975 60.7333 143.12 60.8805C143.148 61.6388 143.174 62.435 143.174 63.2859V64.2566C142.608 64.2566 141.981 64.2247 141.408 64.1671L141.438 64.6099C141.438 64.8405 141.408 65.1089 141.379 65.3728C141.865 65.3152 142.349 65.2864 142.837 65.2864H143.12V66.254C143.12 70.029 142.975 72.6483 142.975 74.0906C142.975 76.8039 143.945 78.0446 146.537 78.0446C147.589 78.0446 148.643 77.6851 149.555 77.0663Z" fill="#1D1D1B"/>
<path d="M159.839 69.7666H152.518C152.629 66.6741 154.282 64.7646 156.363 64.7646C158.501 64.7646 159.839 66.4132 159.839 69.2964V69.7666ZM162.09 70.1503C162.09 66.1205 160.01 63.8834 156.479 63.8834C152.601 63.8834 150.067 66.7059 150.067 70.9738C150.067 75.1234 152.716 78.0172 156.649 78.0172C158.355 78.0172 159.922 77.4485 161.378 76.3656V76.0107C161.378 75.6876 161.405 75.3009 161.435 74.9217C160.124 76.2427 158.757 76.8631 157.131 76.8631C154.111 76.8631 152.459 74.7716 152.459 70.854V70.7661H162.059L162.09 70.1503Z" fill="#1D1D1B"/>
<path d="M175.565 65.0588C174.113 64.2914 172.602 63.9092 171.037 63.9092C166.875 63.9092 164.116 66.7074 164.116 70.9723C164.116 75.269 166.762 78.04 170.638 78.04C172.602 78.04 174.141 77.591 175.395 76.5931L175.365 76.0076C175.365 75.7119 175.395 75.3585 175.423 74.946C174.084 76.361 172.774 77.0359 171.206 77.0359C168.328 77.0359 166.364 74.7382 166.364 70.9435C166.364 67.0259 168.104 64.8222 171.039 64.8222C172.775 64.8222 174.028 65.7049 174.828 67.531C174.997 66.6195 175.254 65.7671 175.565 65.0588Z" fill="#1D1D1B"/>
<path d="M189.154 77.7488C189.099 75.8332 189.043 74.359 189.043 73.3277C189.043 71.6215 189.125 70.1503 189.125 68.9127C189.125 65.5927 187.644 63.9122 184.679 63.9122C182.83 63.9122 181.549 64.7055 180.35 66.53C180.35 65.1468 180.325 63.8212 180.325 62.5973C180.325 60.7379 180.35 58.5963 180.407 56.1954C180.065 56.2561 179.669 56.3153 179.266 56.3153C178.924 56.3153 178.526 56.2561 178.098 56.1954C178.184 59.5685 178.243 63.1448 178.243 66.9425C178.243 68.943 178.214 72.536 178.098 77.7488C178.474 77.6532 178.842 77.5986 179.211 77.5986C179.61 77.5986 180.009 77.6517 180.378 77.7488C180.35 76.1821 180.325 75.0643 180.325 74.3863V72.3297C180.325 69.9152 180.378 68.2378 180.862 67.2398C181.491 66.0022 182.543 65.3561 183.856 65.3561C186.218 65.3561 187.018 66.8576 187.018 70.0927C187.018 72.0037 186.961 74.5623 186.874 77.7503C187.274 77.6548 187.644 77.6002 188.015 77.6002C188.414 77.5986 188.812 77.6517 189.154 77.7488Z" fill="#1D1D1B"/>
<path d="M204.34 77.7488C204.286 76.1229 204.253 74.626 204.253 73.2094C204.253 71.8596 204.314 70.4491 204.314 69.028C204.314 65.5912 202.831 63.8834 199.866 63.8834C197.986 63.8834 196.563 64.7904 195.51 66.6802C195.51 66.3268 195.48 65.9719 195.48 65.6185C195.48 65.1453 195.51 64.6751 195.538 64.1746C195.198 64.2656 194.826 64.2929 194.427 64.2929C194.085 64.2929 193.687 64.2641 193.286 64.1746C193.401 66.2085 193.401 68.3561 193.401 70.7099V72.7377C193.401 74.4758 193.401 76.1229 193.286 77.7503C193.687 77.6548 194.057 77.6002 194.427 77.6002C194.825 77.6002 195.224 77.6532 195.593 77.7503C195.538 76.2731 195.538 74.5092 195.538 72.357V71.0648C195.538 69.1493 195.593 67.7039 196.479 66.5892C197.106 65.7353 197.987 65.3561 199.068 65.3561C201.18 65.3561 202.23 66.7681 202.23 69.5952C202.23 73.0047 202.176 75.7453 202.064 77.7503C202.461 77.6548 202.832 77.6002 203.199 77.6002C203.571 77.5986 203.97 77.6517 204.34 77.7488Z" fill="#1D1D1B"/>
<path d="M211.003 77.7488C210.92 75.3904 210.862 73.0016 210.862 70.6144C210.862 68.4091 210.92 66.2858 211.003 64.1655C210.666 64.2565 210.266 64.2838 209.866 64.2838C209.498 64.2838 209.126 64.255 208.728 64.1655C208.814 66.2524 208.872 68.4091 208.872 70.6144C208.872 73.0016 208.814 75.3904 208.728 77.7488C209.126 77.6532 209.498 77.5971 209.866 77.5971C210.266 77.5971 210.664 77.6517 211.003 77.7488ZM211.29 59.1742C211.29 58.3491 210.664 57.7318 209.864 57.7318C209.099 57.7318 208.441 58.3491 208.441 59.1742C208.441 59.9674 209.098 60.6165 209.864 60.6165C210.664 60.6165 211.29 59.9674 211.29 59.1742Z" fill="#1D1D1B"/>
<path d="M226.789 77.7488C224.283 74.6806 222.089 72.0567 220.233 69.8197L222.743 67.3733C224.253 65.9051 225.42 64.8131 226.362 64.167C225.964 64.2247 225.535 64.258 225.137 64.258C224.736 64.258 224.337 64.2262 223.913 64.167C220.862 68.1726 218.611 70.0274 218.097 70.0274C217.785 70.0274 217.641 69.8515 217.641 69.5224V68.5532C217.641 64.9587 217.672 60.8592 217.785 56.1954C217.415 56.2561 217.017 56.3153 216.617 56.3153C216.247 56.3153 215.85 56.2561 215.45 56.1954C215.565 59.8309 215.594 63.4072 215.594 66.9334C215.594 69.7029 215.565 73.2913 215.45 77.7488C215.848 77.6532 216.247 77.5986 216.617 77.5986C217.015 77.5986 217.415 77.6517 217.785 77.7488C217.641 75.5056 217.641 73.7736 217.641 72.6164V70.9996C217.641 70.7327 217.641 70.6144 217.902 70.6144C218.329 70.6144 220.348 72.9425 223.798 77.7488C224.255 77.6532 224.736 77.6229 225.221 77.6229C225.736 77.6229 226.275 77.6517 226.789 77.7488Z" fill="#1D1D1B"/>
<path d="M235.848 74.3288C235.848 74.7398 235.818 75.0932 235.369 75.5633C234.623 76.3323 233.485 76.8313 232.574 76.8313C231.034 76.8313 230.096 75.8333 230.096 74.0937C230.096 71.8247 231.834 71.2985 235.848 70.6235V74.3288ZM239.639 77.2696L239.524 76.713L239.04 76.7448C237.984 76.7448 237.812 76.2109 237.812 74.8277V74.036L237.93 69.1205V68.7687C237.93 65.5002 236.705 63.9426 233.54 63.9426C231.804 63.9426 230.236 64.5023 229.038 65.5579L228.984 67.0609H229.213C230.068 65.702 231.261 65.0255 232.8 65.0255C235.053 65.0255 235.905 66.2646 235.905 68.7899V69.4072C235.194 70.0578 233.513 70.1761 231.064 70.7054C228.871 71.2105 227.815 72.4117 227.815 74.4759C227.815 76.7099 229.181 78.0127 231.658 78.0127C233.255 78.0127 234.651 77.3272 235.818 76.0593C235.993 77.2135 236.39 77.7413 237.359 77.7413C238.156 77.7458 238.866 77.5077 239.639 77.2696Z" fill="#1D1D1B"/>
<path d="M274.881 58.0852C274.568 58.1717 274.252 58.202 273.94 58.202C273.627 58.202 273.344 58.1701 273.053 58.0852C271.657 63.7075 270.036 69.2676 268.212 74.7124C266.245 69.1205 264.482 63.5589 262.86 58.0852C262.544 58.1717 262.231 58.202 261.942 58.202C261.632 58.202 261.346 58.1701 261.033 58.0852C259.468 64.029 257.7 69.6468 255.82 75.0051C253.996 69.1796 252.402 63.5285 250.976 58.0852C250.549 58.1717 250.092 58.202 249.662 58.202C249.206 58.202 248.753 58.1701 248.326 58.0852C250.492 65.0861 252.487 71.6199 254.283 77.7473C254.623 77.6563 254.936 77.5926 255.249 77.5926C255.589 77.5926 255.905 77.6563 256.218 77.7473C257.044 75.3873 258.753 70.032 261.431 61.6752C263.341 67.1473 265.075 72.5011 266.558 77.7776C266.901 77.6563 267.214 77.6244 267.556 77.6244C267.9 77.6244 268.212 77.6563 268.522 77.7458C270.607 71.3272 272.683 64.7965 274.881 58.0852Z" fill="#1D1D1B"/>
<path d="M282.655 64.1747C282.199 64.0897 281.858 64.0291 281.603 64.0291C280.231 64.0291 279.123 65.1453 278.125 67.3293C278.125 66.1494 278.182 65.0877 278.269 64.1747C277.896 64.2657 277.498 64.2914 277.098 64.2914C276.731 64.2914 276.331 64.2641 275.903 64.1747C276.021 65.4123 276.044 66.7985 276.044 68.3258C276.044 72.533 275.987 75.6831 275.903 77.717C276.273 77.6518 276.617 77.6245 276.959 77.6245C277.357 77.6245 277.786 77.6518 278.183 77.7473C278.097 76.449 278.04 74.5062 278.04 71.943C278.04 68.0331 278.84 66.116 280.946 66.116C281.403 66.116 281.83 66.2328 282.282 66.4997L282.512 66.3511C282.513 65.5306 282.541 64.7631 282.655 64.1747Z" fill="#1D1D1B"/>
<path d="M294.792 71.124C294.792 75.0659 293.309 77.1285 290.579 77.1285C287.812 77.1285 286.329 75.0097 286.329 70.9132C286.329 66.8501 287.812 64.7631 290.547 64.7631C293.309 64.7631 294.792 66.9426 294.792 71.124ZM297.186 70.9451C297.186 66.7651 294.451 63.9108 290.579 63.9108C286.815 63.9108 283.967 66.7651 283.967 70.9451C283.967 75.1523 286.728 78.0082 290.579 78.0082C294.364 78.0097 297.186 75.2433 297.186 70.9451Z" fill="#1D1D1B"/>
<path d="M310.577 65.0588C309.121 64.2914 307.611 63.9092 306.046 63.9092C301.886 63.9092 299.121 66.7074 299.121 70.9723C299.121 75.269 301.771 78.04 305.647 78.04C307.611 78.04 309.149 77.591 310.401 76.5931L310.372 76.0076C310.372 75.7119 310.401 75.3585 310.432 74.946C309.09 76.361 307.782 77.0359 306.217 77.0359C303.338 77.0359 301.37 74.7382 301.37 70.9435C301.37 67.0259 303.109 64.8222 306.045 64.8222C307.783 64.8222 309.036 65.7049 309.836 67.531C310.006 66.6195 310.264 65.7671 310.577 65.0588Z" fill="#1D1D1B"/>
<path d="M317.443 63.5437V62.0194C317.042 62.3713 316.387 62.9522 315.421 63.6605V63.3329C315.421 60.6014 315.478 58.02 315.562 56.1954C315.192 56.2243 314.768 56.2531 314.364 56.2531C314.026 56.2531 313.624 56.2227 313.254 56.1954C313.366 58.5705 313.398 61.2778 313.398 64.3354V65.0968C312.574 65.6898 312.314 65.8672 311.46 66.3935V67.892C312.658 66.891 313.256 66.3632 313.367 66.3086V70.4779C313.367 73.6568 313.316 76.0607 313.256 77.7458C313.626 77.6821 313.995 77.6487 314.365 77.6487C314.769 77.6487 315.163 77.6821 315.563 77.7458C315.48 75.9151 315.423 71.7686 315.423 64.8677C316.273 64.3096 316.502 64.1337 317.443 63.5437Z" fill="#1D1D1B"/>
<path d="M326.784 74.3288C326.784 74.7398 326.753 75.0932 326.303 75.5633C325.563 76.3323 324.422 76.8313 323.51 76.8313C321.97 76.8313 321.031 75.8333 321.031 74.0937C321.031 71.8247 322.769 71.2985 326.786 70.6235V74.3288H326.784ZM330.578 77.2696L330.461 76.713L329.979 76.7448C328.918 76.7448 328.752 76.2109 328.752 74.8277V74.036L328.863 69.1205V68.7687C328.863 65.5002 327.639 63.9426 324.479 63.9426C322.738 63.9426 321.173 64.5023 319.975 65.5579L319.921 67.0609H320.147C321.004 65.702 322.199 65.0255 323.739 65.0255C325.99 65.0255 326.842 66.2646 326.842 68.7899V69.4072C326.131 70.0578 324.447 70.1761 321.998 70.7054C319.805 71.2105 318.752 72.4117 318.752 74.4759C318.752 76.7099 320.117 78.0127 322.594 78.0127C324.192 78.0127 325.585 77.3272 326.752 76.0593C326.93 77.2135 327.326 77.7413 328.298 77.7413C329.092 77.7458 329.804 77.5077 330.578 77.2696Z" fill="#1D1D1B"/>
<path d="M351.684 64.1655C351.428 64.1974 351.145 64.2247 350.857 64.2247C350.574 64.2247 350.321 64.1974 350.005 64.1655C348.264 69.439 346.925 72.944 346.128 74.6533C345.247 72.7923 343.995 69.2934 342.656 64.1655C342.37 64.2247 342.085 64.258 341.828 64.258C341.572 64.258 341.286 64.2262 341.001 64.1655C339.946 67.9966 338.751 71.4986 337.354 74.6882C335.504 69.7681 334.364 66.254 333.882 64.1655C333.452 64.258 333.025 64.2838 332.627 64.2838C332.2 64.2838 331.8 64.2565 331.402 64.1655C334.08 70.8813 335.704 75.4222 336.246 77.7488C336.529 77.6851 336.76 77.6851 337.04 77.6851C337.301 77.6851 337.585 77.6851 337.84 77.7488C338.408 75.2721 339.552 71.7944 341.348 67.3445C343.484 73.2367 344.591 76.6856 344.763 77.7488C345.049 77.6851 345.301 77.6563 345.563 77.6563C345.846 77.6563 346.131 77.6851 346.417 77.7488C347.098 75.0643 348.951 70.5871 351.684 64.1655Z" fill="#1D1D1B"/>
<path d="M360.946 73.4764C360.946 71.6791 360.092 70.7403 358.265 70.1791L356.358 69.5922C354.933 69.1478 354.25 68.5017 354.25 67.1777C354.25 65.7338 355.216 64.7616 356.612 64.7616C357.725 64.7616 358.778 65.4108 359.832 66.6787C359.946 66.0569 360.142 65.4714 360.431 64.8496C359.49 64.2626 358.295 63.9108 356.953 63.9108C354.332 63.9108 352.68 65.5897 352.68 67.8799C352.68 69.9137 353.592 70.9724 355.703 71.5942L356.985 71.9734C358.468 72.3844 359.181 72.9698 359.181 74.3287C359.181 75.947 358.123 76.9465 356.468 76.9465C355.132 76.9465 353.99 76.2155 353.081 74.7398C352.909 75.4769 352.68 76.2155 352.396 76.9769C353.364 77.6518 354.615 78.0173 356.015 78.0173C358.979 78.0158 360.946 76.0365 360.946 73.4764Z" fill="#1D1D1B"/>
<path d="M375.101 77.7488C372.595 74.6806 370.402 72.0567 368.549 69.8197L371.055 67.3733C372.566 65.9051 373.736 64.8131 374.674 64.167C374.276 64.2247 373.848 64.258 373.45 64.258C373.049 64.258 372.652 64.2262 372.225 64.167C369.174 68.1726 366.927 70.0274 366.413 70.0274C366.097 70.0274 365.953 69.8515 365.953 69.5224V68.5532C365.953 64.9587 365.984 60.8592 366.097 56.1954C365.73 56.2561 365.332 56.3153 364.93 56.3153C364.563 56.3153 364.162 56.2561 363.763 56.1954C363.877 59.8309 363.907 63.4072 363.907 66.9334C363.907 69.7029 363.877 73.2913 363.763 77.7488C364.161 77.6532 364.563 77.5986 364.93 77.5986C365.331 77.5986 365.73 77.6517 366.097 77.7488C365.953 75.5056 365.953 73.7736 365.953 72.6164V70.9996C365.953 70.7327 365.953 70.6144 366.215 70.6144C366.642 70.6144 368.663 72.9425 372.111 77.7488C372.567 77.6532 373.049 77.6229 373.536 77.6229C374.049 77.6229 374.595 77.6517 375.101 77.7488Z" fill="#1D1D1B"/>
<path d="M384.16 74.3288C384.16 74.7398 384.134 75.0932 383.682 75.5633C382.936 76.3323 381.798 76.8313 380.889 76.8313C379.346 76.8313 378.409 75.8333 378.409 74.0937C378.409 71.8247 380.148 71.2985 384.162 70.6235V74.3288H384.16ZM387.951 77.2696L387.837 76.713L387.355 76.7448C386.299 76.7448 386.128 76.2109 386.128 74.8277V74.036L386.242 69.1205V68.7687C386.242 65.5002 385.018 63.9426 381.852 63.9426C380.117 63.9426 378.552 64.5023 377.351 65.5579L377.297 67.0609H377.523C378.38 65.702 379.581 65.0255 381.115 65.0255C383.366 65.0255 384.218 66.2646 384.218 68.7899V69.4072C383.507 70.0578 381.823 70.1761 379.371 70.7054C377.181 71.2105 376.128 72.4117 376.128 74.4759C376.128 76.7099 377.493 78.0127 379.973 78.0127C381.568 78.0127 382.967 77.3272 384.134 76.0593C384.306 77.2135 384.702 77.7413 385.677 77.7413C386.468 77.7458 387.183 77.5077 387.951 77.2696Z" fill="#1D1D1B"/>
<path d="M59.4567 25.9047C58.9458 25.9047 58.5244 26.3642 58.5244 26.9239C58.5244 27.485 58.9458 27.937 59.4567 27.937C59.9691 27.937 60.3905 27.485 60.3905 26.9239C60.3905 26.3642 59.9691 25.9047 59.4567 25.9047Z" fill="#1D1D1B"/>
<path d="M59.4124 28.4829H59.2597C58.5726 35.631 52.9628 43.281 45.459 43.5267L45.4605 46.2294C54.7304 45.6258 59.2274 38.1259 59.4124 28.4829Z" fill="#1D1D1B"/>
<path d="M48.9036 25.3571C48.8625 24.6534 47.3635 24.9931 46.8658 25.483C46.6353 25.706 46.5413 25.9941 46.4062 26.2808C46.4268 26.3369 46.5531 26.2171 46.8261 26.1321C47.2754 25.9896 48.0638 26.1443 48.3046 25.844C48.472 25.6453 48.6819 25.4648 48.9036 25.3571Z" fill="#1D1D1B"/>
<path d="M57.7477 27.6973C57.2324 27.6973 56.8154 28.1523 56.8154 28.7089C56.8154 29.2716 57.2324 29.7311 57.7477 29.7311C58.2601 29.7311 58.6785 29.2716 58.6785 28.7089C58.6771 28.1538 58.2601 27.6973 57.7477 27.6973Z" fill="#1D1D1B"/>
<path d="M60.904 30.0209C61.4164 30.0209 61.8362 29.5613 61.8362 29.0047C61.8362 28.4466 61.4164 27.9885 60.904 27.9885C60.3901 27.9885 59.9717 28.4466 59.9717 29.0047C59.9731 29.5628 60.3916 30.0209 60.904 30.0209Z" fill="#1D1D1B"/>
<path d="M45.4575 25.1205C46.0565 24.7944 46.541 24.5048 47.1841 24.3137C47.6143 24.1908 48.0767 24.0498 48.5319 24.1013C49.1925 24.1665 49.4362 24.6261 49.3658 25.1069C49.9501 24.7853 51.0498 24.6033 51.5812 25.1038C52.0892 25.5831 52.192 26.3687 52.0246 27.0224C51.433 26.3657 50.6724 26.2004 49.8694 26.6099C49.2674 26.9102 48.7682 27.4456 48.4937 28.0765C48.7506 28.3798 49.5875 28.1326 49.8723 27.9855C50.1865 27.8141 50.4669 27.5396 50.8222 27.1407C50.7767 27.7353 50.7062 28.2828 50.4992 28.574C50.1043 29.126 49.7108 29.2398 49.0428 29.4825C48.5216 29.6675 47.9886 29.9299 47.4718 30.4744C47.0226 31.0871 46.9095 32.1533 47.0461 33.0557C47.1958 34.0567 47.5511 35.1047 47.8521 36.1376C48.1516 37.1689 48.3909 38.1866 48.3219 39.1148C49.8605 39.3681 52.3285 37.6012 53.1977 36.8792C54.1579 36.0739 55.1445 35.1442 55.6202 34.2372C56.0078 33.4971 56.1223 31.9941 55.3926 30.8247C54.0125 28.6013 54.7672 25.0219 57.6903 24.1089C59.4844 23.569 61.9509 24.0862 63.0593 26.1564C64.1399 28.166 64.3866 30.4319 64.3557 32.8131C64.3058 36.4531 64.1634 38.7174 64.8167 41.4323C65.1397 42.7609 65.7417 43.9894 66.6931 45.1208C65.9458 46.0384 64.6934 45.4059 63.7303 44.5566C62.3047 43.3008 61.0891 40.4646 60.3051 35.898L60.1553 36.4622C60.1186 39.2104 60.4651 41.3125 61.0421 43.7664C61.6235 46.2447 62.4691 47.6931 64.5304 49.3235C63.3985 50.3745 62.2563 49.9211 61.2594 49.1354C59.2759 47.5778 58.4229 45.8063 57.611 42.2255L57.4642 42.4242C57.2895 44.5263 57.5038 46.6087 58.1571 48.4954C58.7796 50.2972 59.9879 52.0247 61.5413 53.3411C60.4871 54.3255 59.3346 53.6733 58.3774 52.9559C57.0193 51.9428 54.9991 49.9848 54.3546 46.143L54.1858 46.2932C54.1168 48.4939 54.3164 50.4701 54.773 52.1688C55.2428 53.9053 56.6655 55.968 58.097 56.9584C56.9048 58.0019 55.8301 57.3618 54.9565 56.6672C52.6413 54.829 51.1834 52.2264 50.6519 48.7775L50.4419 48.8791C50.1953 52.6344 50.2114 56.7491 53.4664 59.156L52.1744 59.9887L52.929 61.3173C53.2623 61.8997 56.2735 60.3072 57.4994 61.3173C57.9927 61.7238 58.3084 62.3774 57.9545 63.2071L57.8797 63.1752C57.8488 62.5898 57.5611 62.2804 57.1867 62.1211C56.6405 61.8876 55.8066 61.9543 55.1841 62.6899C53.9743 63.5362 53.1228 62.9341 52.4974 63.7819C52.1274 64.2793 52.1362 64.7192 52.2918 65.2136L52.2316 65.25C50.5638 64.3506 52.1201 62.6868 51.8117 62.1257L51.0013 60.6606L49.6991 61.472C49.5787 60.4922 48.0929 55.2537 47.1944 54.9018C46.9639 55.2476 46.9756 56.1621 46.9418 56.7931C46.8949 57.6743 47.2854 58.3204 47.2002 59.5519C47.1621 60.0842 46.9022 60.8274 46.4882 61.563C46.8963 61.839 47.0813 62.2713 47.071 62.7733C47.0608 63.3405 46.8156 64.0003 46.6467 64.5296C46.425 65.2197 46.2371 65.7414 46.4867 65.7414C47.2002 65.3577 47.8712 65.2879 48.4482 65.4593C49.2806 65.7096 49.8106 66.5316 50.5623 66.9305C51.4344 67.3931 52.1758 67.3112 53.1727 67.7055C51.8117 68.2469 51.6179 69.6817 49.7725 69.3814C48.6596 69.204 46.9947 67.0351 46.6922 67.2156C46.4779 67.8572 46.6174 68.6049 46.7363 69.621C46.7936 70.12 46.8523 70.6964 46.8552 71.3485C46.8582 72.0052 46.8156 72.7499 46.6761 73.5886C46.4896 74.717 46.0962 76.1609 45.4605 77.7003H45.4751C70.3958 69.0917 70.5822 33.0497 70.7892 21.5002H45.4561L45.4575 25.1205Z" fill="#1D1D1B"/>
<path d="M16.1516 13.9927H16.0342L21.0171 77.7033H21.2418V15.6822C19.3199 17.0958 17.0105 16.4739 16.1516 13.9927Z" fill="#1D1D1B"/>
<path d="M20.0322 9.90833V10.013C22.3255 11.0064 22.9906 13.8668 21.242 15.6823H70.7999V15.4457L20.0322 9.90833Z" fill="#1D1D1B"/>
<path d="M44.5093 26.2822C44.4887 26.3353 44.361 26.2185 44.0879 26.1321C43.6401 25.9925 42.8517 26.1412 42.608 25.8409C42.4406 25.6482 42.2292 25.4647 42.0105 25.3555C42.0486 24.6533 43.5506 24.993 44.0483 25.4829C44.2773 25.7074 44.3727 25.9971 44.5093 26.2822ZM45.4504 46.2264C36.1833 45.6258 31.6863 38.1259 31.5028 28.4829H31.654C32.3397 35.6309 37.9525 43.281 45.4504 43.5267V46.2264ZM30.5235 26.9268C30.5235 26.3641 30.9434 25.9046 31.4544 25.9046C31.9682 25.9046 32.3866 26.3641 32.3866 26.9268C32.3866 27.4849 31.9668 27.9399 31.4544 27.9399C30.9434 27.9399 30.5235 27.4849 30.5235 26.9268ZM30.0082 30.0208C29.4958 30.0208 29.0789 29.5612 29.0789 29.0031C29.0789 28.4465 29.4958 27.9885 30.0082 27.9885C30.5206 27.9885 30.9376 28.4465 30.9376 29.0031C30.9376 29.5628 30.5221 30.0208 30.0082 30.0208ZM33.1662 27.6927C33.6801 27.6927 34.0985 28.1508 34.0985 28.7089C34.0985 29.2731 33.6801 29.7311 33.1662 29.7311C32.6553 29.7311 32.2369 29.2731 32.2369 28.7089C32.2384 28.1508 32.6553 27.6927 33.1662 27.6927ZM42.3819 24.0997C41.7212 24.1665 41.4761 24.626 41.548 25.1068C40.9622 24.7838 39.8611 24.6033 39.3311 25.1007C38.8246 25.583 38.7203 26.3641 38.8906 27.0223C39.4823 26.3656 40.2428 26.2018 41.0459 26.6113C41.6464 26.9086 42.147 27.4455 42.4216 28.0749C42.1602 28.3798 41.3278 28.1356 41.0385 27.9854C40.7214 27.814 40.4454 27.5395 40.0916 27.1407C40.1356 27.7352 40.2061 28.2827 40.4131 28.5739C40.8095 29.1275 41.1986 29.2397 41.8725 29.4809C42.3951 29.6674 42.9222 29.9298 43.4405 30.4743C43.8912 31.0885 44.0028 32.1547 43.8662 33.0556C43.7135 34.0566 43.3597 35.1032 43.0617 36.1406C42.7622 37.1689 42.5185 38.185 42.5904 39.1163C41.0547 39.3695 38.5823 37.5996 37.7161 36.8777C36.7544 36.0753 35.7693 35.1441 35.2892 34.2371C34.9046 33.497 34.7915 31.9955 35.5182 30.8231C36.8998 28.5997 36.1452 25.0188 33.2206 24.1073C31.4265 23.5674 28.96 24.0846 27.8515 26.1548C26.7724 28.1644 26.5243 30.4303 26.5566 32.8145C26.6065 36.453 26.7489 38.7174 26.0912 41.4307C25.7726 42.7593 25.1692 43.9908 24.2148 45.1177C24.9621 46.0338 26.2145 45.4044 27.182 44.5565C28.6061 43.2962 29.8232 40.4585 30.6072 35.8994L30.757 36.4621C30.7922 39.2118 30.4472 41.3124 29.8702 43.7679C29.2888 46.2446 28.4417 47.693 26.3819 49.3234C27.5138 50.3745 28.6531 49.921 29.6515 49.1369C31.6364 47.5747 32.4894 45.8063 33.2998 42.2239L33.4467 42.4256C33.617 44.5262 33.4041 46.6086 32.7552 48.4953C32.1312 50.2971 30.9244 52.0261 29.3681 53.3426C30.4237 54.3269 31.5777 53.6747 32.5335 52.9543C33.8871 51.9442 35.9073 49.9847 36.5562 46.1445L36.7251 46.2931C36.7941 48.4938 36.5973 50.4685 36.1378 52.1717C35.668 53.9053 34.2439 55.9695 32.8109 56.9583C34.006 58.0018 35.0807 57.3617 35.9528 56.6671C38.2725 54.8304 39.7245 52.2248 40.2589 48.7774L40.4645 48.8806C40.717 52.6328 40.6994 56.749 37.4445 59.1544L38.735 59.9886L37.9818 61.3172C37.6456 61.8996 34.6359 60.3071 33.41 61.3172C32.9167 61.7222 32.5995 62.3774 32.9563 63.2055L33.0297 63.1736C33.0605 62.5882 33.3483 62.2803 33.7241 62.1226C34.2688 61.886 35.1028 61.9512 35.7238 62.6898C36.9321 63.5346 37.7851 62.9294 38.412 63.7772C38.779 64.2777 38.7732 64.7176 38.6161 65.2075L38.6763 65.2484C40.3456 64.349 38.7908 62.6852 39.0962 62.1241L39.9066 60.6575L41.2118 61.4704C41.3292 60.4861 42.8165 55.2536 43.7121 54.9002C43.9455 55.2415 43.9294 56.1605 43.9646 56.793C44.0145 57.6727 43.621 58.3157 43.7106 59.5503C43.7458 60.0826 44.0072 60.8228 44.4212 61.5599C44.0116 61.839 43.8266 62.2697 43.8369 62.7732C43.8501 63.3405 44.0938 63.9987 44.2612 64.528C44.4799 65.2166 44.6723 65.7398 44.4212 65.7398C43.7077 65.3546 43.0367 65.2863 42.4612 65.4577C41.6229 65.7065 41.0987 66.5285 40.3426 66.9289C39.4735 67.393 38.7306 67.3111 37.7366 67.7069C39.0932 68.2408 39.2914 69.6786 41.134 69.3813C42.2454 69.2039 43.9103 67.0335 44.2142 67.217C44.4271 67.854 44.2891 68.6033 44.1716 69.6225C44.1129 70.1199 44.0542 70.6933 44.0527 71.353C44.0439 72.0052 44.0909 72.7498 44.2303 73.5886C44.4139 74.717 44.797 76.1654 45.4328 77.6987H45.446L45.4607 25.1159C44.8616 24.7928 44.3757 24.5032 43.7297 24.3105C43.301 24.1892 42.8341 24.0497 42.3819 24.0997Z" fill="#1D1D1B"/>
</svg>
